<svg width="24" height="24" viewBox="0 0 24 24" fill="none" xmlns="http://www.w3.org/2000/svg">
<g clip-path="url(#clip0_1_882)">
<path d="M15.0001 8L12.0001 5L15.0001 2L18.0001 5L15.0001 8ZM20.0001 11L18.0001 9L20.0001 7L22.0001 9L20.0001 11ZM12.0751 22C10.6751 22 9.3626 21.7333 8.1376 21.2C6.9126 20.6667 5.84593 19.9458 4.9376 19.0375C4.02926 18.1292 3.30843 17.0625 2.7751 15.8375C2.24176 14.6125 1.9751 13.3 1.9751 11.9C1.9751 9.46667 2.7501 7.32083 4.3001 5.4625C5.8501 3.60417 7.8251 2.45 10.2251 2C9.9251 3.65 10.0168 5.2625 10.5001 6.8375C10.9834 8.4125 11.8168 9.79167 13.0001 10.975C14.1834 12.1583 15.5626 12.9917 17.1376 13.475C18.7126 13.9583 20.3251 14.05 21.9751 13.75C21.5418 16.15 20.3918 18.125 18.5251 19.675C16.6584 21.225 14.5084 22 12.0751 22ZM12.0751 20C13.5418 20 14.9001 19.6333 16.1501 18.9C17.4001 18.1667 18.3834 17.1583 19.1001 15.875C17.6668 15.7417 16.3084 15.3792 15.0251 14.7875C13.7418 14.1958 12.5918 13.3917 11.5751 12.375C10.5584 11.3583 9.7501 10.2083 9.1501 8.925C8.5501 7.64167 8.19176 6.28333 8.0751 4.85C6.79176 5.56667 5.7876 6.55417 5.0626 7.8125C4.3376 9.07083 3.9751 10.4333 3.9751 11.9C3.9751 14.15 4.7626 16.0625 6.3376 17.6375C7.9126 19.2125 9.8251 20 12.0751 20Z" fill="#1F1F1F"/>
</g>
<defs>
<clipPath id="clip0_1_882">
<rect width="24" height="24" fill="white"/>
</clipPath>
</defs>
</svg>
