<svg width="158" height="15" viewBox="0 0 158 15" fill="none" xmlns="http://www.w3.org/2000/svg">
<path d="M9.77516e-06 7.82005C9.77516e-06 6.46005 0.313343 5.24005 0.94001 4.16005C1.58001 3.08005 2.44001 2.24005 3.52001 1.64005C4.61334 1.02671 5.80668 0.720048 7.10001 0.720048C8.58001 0.720048 9.89334 1.08671 11.04 1.82005C12.2 2.54005 13.04 3.56671 13.56 4.90005H10.82C10.46 4.16672 9.96001 3.62005 9.32001 3.26005C8.68001 2.90005 7.94001 2.72005 7.10001 2.72005C6.18001 2.72005 5.36001 2.92671 4.64001 3.34005C3.92001 3.75338 3.35334 4.34671 2.94001 5.12005C2.54001 5.89338 2.34001 6.79338 2.34001 7.82005C2.34001 8.84672 2.54001 9.74672 2.94001 10.52C3.35334 11.2934 3.92001 11.8934 4.64001 12.32C5.36001 12.7334 6.18001 12.94 7.10001 12.94C7.94001 12.94 8.68001 12.76 9.32001 12.4C9.96001 12.04 10.46 11.4934 10.82 10.76H13.56C13.04 12.0934 12.2 13.12 11.04 13.84C9.89334 14.56 8.58001 14.92 7.10001 14.92C5.79334 14.92 4.60001 14.62 3.52001 14.02C2.44001 13.4067 1.58001 12.56 0.94001 11.48C0.313343 10.4 9.77516e-06 9.18005 9.77516e-06 7.82005ZM15.4688 9.24005C15.4688 8.13338 15.6954 7.15338 16.1488 6.30005C16.6154 5.44672 17.2421 4.78671 18.0288 4.32005C18.8288 3.84005 19.7088 3.60005 20.6688 3.60005C21.5354 3.60005 22.2888 3.77338 22.9288 4.12005C23.5821 4.45338 24.1021 4.87338 24.4888 5.38005V3.78005H26.7888V14.8H24.4888V13.16C24.1021 13.68 23.5754 14.1134 22.9088 14.46C22.2421 14.8067 21.4821 14.98 20.6288 14.98C19.6821 14.98 18.8154 14.74 18.0288 14.26C17.2421 13.7667 16.6154 13.0867 16.1488 12.22C15.6954 11.34 15.4688 10.3467 15.4688 9.24005ZM24.4888 9.28005C24.4888 8.52005 24.3288 7.86005 24.0088 7.30005C23.7021 6.74005 23.2954 6.31338 22.7888 6.02005C22.2821 5.72672 21.7354 5.58005 21.1488 5.58005C20.5621 5.58005 20.0154 5.72672 19.5088 6.02005C19.0021 6.30005 18.5888 6.72005 18.2688 7.28005C17.9621 7.82672 17.8088 8.48005 17.8088 9.24005C17.8088 10 17.9621 10.6667 18.2688 11.24C18.5888 11.8134 19.0021 12.2534 19.5088 12.56C20.0288 12.8534 20.5754 13 21.1488 13C21.7354 13 22.2821 12.8534 22.7888 12.56C23.2954 12.2667 23.7021 11.84 24.0088 11.28C24.3288 10.7067 24.4888 10.04 24.4888 9.28005ZM32.0634 5.38005C32.3968 4.82005 32.8368 4.38672 33.3834 4.08005C33.9434 3.76005 34.6034 3.60005 35.3634 3.60005V5.96005H34.7834C33.8901 5.96005 33.2101 6.18671 32.7434 6.64005C32.2901 7.09338 32.0634 7.88005 32.0634 9.00005V14.8H29.7834V3.78005H32.0634V5.38005ZM47.5592 9.02005C47.5592 9.43338 47.5326 9.80672 47.4792 10.14H39.0592C39.1259 11.02 39.4526 11.7267 40.0392 12.26C40.6259 12.7934 41.3459 13.06 42.1992 13.06C43.4259 13.06 44.2926 12.5467 44.7992 11.52H47.2592C46.9259 12.5334 46.3192 13.3667 45.4392 14.02C44.5726 14.66 43.4926 14.98 42.1992 14.98C41.1459 14.98 40.1992 14.7467 39.3592 14.28C38.5326 13.8 37.8792 13.1334 37.3992 12.28C36.9326 11.4134 36.6992 10.4134 36.6992 9.28005C36.6992 8.14671 36.9259 7.15338 37.3792 6.30005C37.8459 5.43338 38.4926 4.76672 39.3192 4.30005C40.1592 3.83338 41.1192 3.60005 42.1992 3.60005C43.2392 3.60005 44.1659 3.82672 44.9792 4.28005C45.7926 4.73338 46.4259 5.37338 46.8792 6.20005C47.3326 7.01338 47.5592 7.95338 47.5592 9.02005ZM45.1792 8.30005C45.1659 7.46005 44.8659 6.78672 44.2792 6.28005C43.6926 5.77338 42.9659 5.52005 42.0992 5.52005C41.3126 5.52005 40.6392 5.77338 40.0792 6.28005C39.5192 6.77338 39.1859 7.44671 39.0792 8.30005H45.1792ZM59.903 9.02005C59.903 9.43338 59.8763 9.80672 59.823 10.14H51.403C51.4696 11.02 51.7963 11.7267 52.383 12.26C52.9696 12.7934 53.6896 13.06 54.543 13.06C55.7696 13.06 56.6363 12.5467 57.143 11.52H59.603C59.2696 12.5334 58.663 13.3667 57.783 14.02C56.9163 14.66 55.8363 14.98 54.543 14.98C53.4896 14.98 52.543 14.7467 51.703 14.28C50.8763 13.8 50.223 13.1334 49.743 12.28C49.2763 11.4134 49.043 10.4134 49.043 9.28005C49.043 8.14671 49.2696 7.15338 49.723 6.30005C50.1896 5.43338 50.8363 4.76672 51.663 4.30005C52.503 3.83338 53.463 3.60005 54.543 3.60005C55.583 3.60005 56.5096 3.82672 57.323 4.28005C58.1363 4.73338 58.7696 5.37338 59.223 6.20005C59.6763 7.01338 59.903 7.95338 59.903 9.02005ZM57.523 8.30005C57.5096 7.46005 57.2096 6.78672 56.623 6.28005C56.0363 5.77338 55.3096 5.52005 54.443 5.52005C53.6563 5.52005 52.983 5.77338 52.423 6.28005C51.863 6.77338 51.5296 7.44671 51.423 8.30005H57.523ZM64.4267 5.38005C64.7601 4.82005 65.2001 4.38672 65.7467 4.08005C66.3067 3.76005 66.9667 3.60005 67.7267 3.60005V5.96005H67.1467C66.2534 5.96005 65.5734 6.18671 65.1067 6.64005C64.6534 7.09338 64.4267 7.88005 64.4267 9.00005V14.8H62.1467V3.78005H64.4267V5.38005ZM79.5425 5.04005C79.5425 5.74671 79.3758 6.41338 79.0425 7.04005C78.7092 7.66672 78.1758 8.18005 77.4425 8.58005C76.7092 8.96672 75.7692 9.16005 74.6225 9.16005H72.1025V14.8H69.8225V0.900048H74.6225C75.6892 0.900048 76.5892 1.08671 77.3225 1.46005C78.0692 1.82005 78.6225 2.31338 78.9825 2.94005C79.3558 3.56672 79.5425 4.26672 79.5425 5.04005ZM74.6225 7.30005C75.4892 7.30005 76.1358 7.10672 76.5625 6.72005C76.9892 6.32005 77.2025 5.76005 77.2025 5.04005C77.2025 3.52005 76.3425 2.76005 74.6225 2.76005H72.1025V7.30005H74.6225ZM80.957 9.24005C80.957 8.13338 81.1837 7.15338 81.637 6.30005C82.1037 5.44672 82.7304 4.78671 83.517 4.32005C84.317 3.84005 85.197 3.60005 86.157 3.60005C87.0237 3.60005 87.777 3.77338 88.417 4.12005C89.0704 4.45338 89.5904 4.87338 89.977 5.38005V3.78005H92.277V14.8H89.977V13.16C89.5904 13.68 89.0637 14.1134 88.397 14.46C87.7304 14.8067 86.9704 14.98 86.117 14.98C85.1704 14.98 84.3037 14.74 83.517 14.26C82.7304 13.7667 82.1037 13.0867 81.637 12.22C81.1837 11.34 80.957 10.3467 80.957 9.24005ZM89.977 9.28005C89.977 8.52005 89.817 7.86005 89.497 7.30005C89.1904 6.74005 88.7837 6.31338 88.277 6.02005C87.7704 5.72672 87.2237 5.58005 86.637 5.58005C86.0504 5.58005 85.5037 5.72672 84.997 6.02005C84.4904 6.30005 84.077 6.72005 83.757 7.28005C83.4504 7.82672 83.297 8.48005 83.297 9.24005C83.297 10 83.4504 10.6667 83.757 11.24C84.077 11.8134 84.4904 12.2534 84.997 12.56C85.517 12.8534 86.0637 13 86.637 13C87.2237 13 87.7704 12.8534 88.277 12.56C88.7837 12.2667 89.1904 11.84 89.497 11.28C89.817 10.7067 89.977 10.04 89.977 9.28005ZM97.9317 5.64005V11.74C97.9317 12.1534 98.0251 12.4534 98.2117 12.64C98.4117 12.8134 98.7451 12.9 99.2117 12.9H100.612V14.8H98.8117C97.7851 14.8 96.9984 14.56 96.4517 14.08C95.9051 13.6 95.6317 12.82 95.6317 11.74V5.64005H94.3317V3.78005H95.6317V1.04005H97.9317V3.78005H100.612V5.64005H97.9317ZM108.413 3.60005C109.253 3.60005 110 3.78005 110.653 4.14005C111.32 4.50005 111.84 5.03338 112.213 5.74005C112.6 6.44672 112.793 7.30005 112.793 8.30005V14.8H110.533V8.64005C110.533 7.65338 110.286 6.90005 109.793 6.38005C109.3 5.84671 108.626 5.58005 107.773 5.58005C106.92 5.58005 106.24 5.84671 105.733 6.38005C105.24 6.90005 104.993 7.65338 104.993 8.64005V14.8H102.713V4.86374e-05H104.993V5.06005C105.38 4.59338 105.866 4.23338 106.453 3.98005C107.053 3.72672 107.706 3.60005 108.413 3.60005ZM127.121 14.8H124.841L117.981 4.42005V14.8H115.701V0.880048H117.981L124.841 11.24V0.880048H127.121V14.8ZM134.895 14.98C133.855 14.98 132.915 14.7467 132.075 14.28C131.235 13.8 130.575 13.1334 130.095 12.28C129.615 11.4134 129.375 10.4134 129.375 9.28005C129.375 8.16005 129.622 7.16672 130.115 6.30005C130.609 5.43338 131.282 4.76672 132.135 4.30005C132.989 3.83338 133.942 3.60005 134.995 3.60005C136.049 3.60005 137.002 3.83338 137.855 4.30005C138.709 4.76672 139.382 5.43338 139.875 6.30005C140.369 7.16672 140.615 8.16005 140.615 9.28005C140.615 10.4 140.362 11.3934 139.855 12.26C139.349 13.1267 138.655 13.8 137.775 14.28C136.909 14.7467 135.949 14.98 134.895 14.98ZM134.895 13C135.482 13 136.029 12.86 136.535 12.58C137.055 12.3 137.475 11.88 137.795 11.32C138.115 10.76 138.275 10.08 138.275 9.28005C138.275 8.48005 138.122 7.80672 137.815 7.26005C137.509 6.70005 137.102 6.28005 136.595 6.00005C136.089 5.72005 135.542 5.58005 134.955 5.58005C134.369 5.58005 133.822 5.72005 133.315 6.00005C132.822 6.28005 132.429 6.70005 132.135 7.26005C131.842 7.80672 131.695 8.48005 131.695 9.28005C131.695 10.4667 131.995 11.3867 132.595 12.04C133.209 12.68 133.975 13 134.895 13ZM157.669 3.78005L154.249 14.8H151.849L149.629 6.66005L147.409 14.8H145.009L141.569 3.78005H143.889L146.189 12.64L148.529 3.78005H150.909L153.149 12.6L155.429 3.78005H157.669Z" fill="white"/>
</svg>
